# xmcd
#
# Track frame offsets:
#   150
#   24857
#   45257
#   64632
#   86722
#   104707
#   119342
#   132160
#   149060
#   168032
#   184587
#   204355
#   220562
#   239772
#
# Disc length: 3486 seconds
#
# Revision: 0
# Processed by: cddbd v1.5.1PL2 Copyright (c) Steve Scherf et al.
# Submitted via: GXTranscoder 2.0.1939
#
DISCID=c00d9c0e
DTITLE=Mojo Mamas - Blue Chicago - Mojo Mamas
DYEAR=2000
DGENRE=Blues
TTITLE0=1 Graná Louise - Good Woman Go Bad
TTITLE1=2 Graná Louise - Somebody Done Told Me
TTITLE2=3 Shirley Johnson - Paycheck In My Pocket
TTITLE3=4 Shirley Johnson - Prisoner Of Love
TTITLE4=5 Big Time Sarah - Gonna Have A Murder On Your H
TTITLE5=6 Big Time Sarah - Love Fever
TTITLE6=7 Zora Young - Daughter Of A Son Of A Gun
TTITLE7=8 Gloria Shannon - One Eyed Man
TTITLE8=9 Gloria Shannon - Baby, Won't You Please Come H
TTITLE9=10 Maggie Burrell - Pride And Joy
TTITLE10=11 Mary Lane - I Wonder Why
TTITLE11=12 Mary Lane - Coming Home
TTITLE12=13 Pat Scott - Today I Sing The Blues
TTITLE13=14 Pat Scott - Let's Do It Again
EXTD=
EXTT0=
EXTT1=
EXTT2=
EXTT3=
EXTT4=
EXTT5=
EXTT6=
EXTT7=
EXTT8=
EXTT9=
EXTT10=
EXTT11=
EXTT12=
EXTT13=
PLAYORDER=
